<svg width="26" height="26" viewBox="0 0 26 26" fill="none" xmlns="http://www.w3.org/2000/svg">
<path d="M19.5 19.5H19.335C19.1403 18.5521 18.7975 17.6803 18.3066 16.8848C17.8158 16.0892 17.2191 15.4036 16.5166 14.8281C15.8141 14.2526 15.0228 13.804 14.1426 13.4824C13.2624 13.1608 12.3398 13 11.375 13C10.6302 13 9.91081 13.0973 9.2168 13.292C8.52279 13.4867 7.87533 13.7575 7.27441 14.1045C6.6735 14.4515 6.1276 14.8747 5.63672 15.374C5.14583 15.8734 4.72266 16.4235 4.36719 17.0244C4.01172 17.6253 3.73665 18.2728 3.54199 18.9668C3.34733 19.6608 3.25 20.3802 3.25 21.125H1.625C1.625 20.1094 1.77311 19.1318 2.06934 18.1924C2.36556 17.2529 2.79297 16.3854 3.35156 15.5898C3.91016 14.7943 4.57031 14.0876 5.33203 13.4697C6.09375 12.8519 6.95703 12.3652 7.92188 12.0098C6.96549 11.3835 6.2207 10.5964 5.6875 9.64844C5.1543 8.70052 4.88346 7.65104 4.875 6.5C4.875 5.60286 5.04427 4.76074 5.38281 3.97363C5.72135 3.18652 6.18262 2.49674 6.7666 1.9043C7.35059 1.31185 8.04036 0.846354 8.83594 0.507812C9.63151 0.169271 10.4779 0 11.375 0C12.2721 0 13.1143 0.169271 13.9014 0.507812C14.6885 0.846354 15.3783 1.30762 15.9707 1.8916C16.5632 2.47559 17.0286 3.16536 17.3672 3.96094C17.7057 4.75651 17.875 5.60286 17.875 6.5C17.875 7.05859 17.8073 7.60449 17.6719 8.1377C17.5365 8.6709 17.3333 9.17448 17.0625 9.64844C16.7917 10.1224 16.4743 10.5583 16.1104 10.9561C15.7464 11.3538 15.319 11.7051 14.8281 12.0098C15.776 12.3737 16.6478 12.873 17.4434 13.5078C18.2389 14.1426 18.9245 14.8874 19.5 15.7422V19.5ZM6.5 6.5C6.5 7.17708 6.62695 7.80762 6.88086 8.3916C7.13477 8.97559 7.48177 9.49186 7.92188 9.94043C8.36198 10.389 8.87826 10.7402 9.4707 10.9941C10.0632 11.248 10.6979 11.375 11.375 11.375C12.0436 11.375 12.6742 11.248 13.2666 10.9941C13.859 10.7402 14.3753 10.3932 14.8154 9.95312C15.2555 9.51302 15.6068 8.99675 15.8691 8.4043C16.1315 7.81185 16.2585 7.17708 16.25 6.5C16.25 5.83138 16.123 5.20085 15.8691 4.6084C15.6152 4.01595 15.2682 3.49967 14.8281 3.05957C14.388 2.61947 13.8675 2.26823 13.2666 2.00586C12.6657 1.74349 12.0352 1.61654 11.375 1.625C10.6979 1.625 10.0674 1.75195 9.4834 2.00586C8.89941 2.25977 8.38314 2.60677 7.93457 3.04688C7.486 3.48698 7.13477 4.00749 6.88086 4.6084C6.62695 5.20931 6.5 5.83984 6.5 6.5ZM22.75 21.125H26V22.75H22.75V26H21.125V22.75H17.875V21.125H21.125V17.875H22.75V21.125Z" fill="white"/>
</svg>
