<svg width="26" height="27" viewBox="0 0 26 27" fill="none" xmlns="http://www.w3.org/2000/svg">
<path d="M13.005 9.82394C12.0877 9.82394 11.2286 10.174 10.5782 10.8137C9.93085 11.4535 9.57189 12.2984 9.57189 13.2007C9.57189 14.103 9.93085 14.9479 10.5782 15.5876C11.2286 16.2244 12.0877 16.5774 13.005 16.5774C13.9223 16.5774 14.7814 16.2244 15.4318 15.5876C16.0791 14.9479 16.4381 14.103 16.4381 13.2007C16.4381 12.2984 16.0791 11.4535 15.4318 10.8137C15.1141 10.4989 14.736 10.2492 14.3194 10.0793C13.9028 9.90938 13.456 9.82258 13.005 9.82394ZM25.6544 16.9305L23.6479 15.2436C23.743 14.6703 23.7921 14.0849 23.7921 13.5024C23.7921 12.92 23.743 12.3316 23.6479 11.7613L25.6544 10.0744C25.8059 9.94678 25.9144 9.77679 25.9654 9.58705C26.0164 9.39731 26.0074 9.1968 25.9397 9.01219L25.9121 8.93373C25.3599 7.41493 24.5325 6.00709 23.4699 4.77844L23.4147 4.71507C23.2857 4.56585 23.1137 4.45859 22.9215 4.40741C22.7293 4.35624 22.5258 4.36355 22.3379 4.42839L19.8466 5.30049C18.9262 4.55815 17.9015 3.97273 16.7909 3.56535L16.3092 1.00337C16.2729 0.810365 16.1777 0.632807 16.0363 0.494283C15.8949 0.35576 15.714 0.262827 15.5177 0.227832L15.4348 0.212744C13.8395 -0.0709146 12.1582 -0.0709146 10.5629 0.212744L10.48 0.227832C10.2837 0.262827 10.1028 0.35576 9.96139 0.494283C9.82001 0.632807 9.72482 0.810365 9.68848 1.00337L9.20373 3.57742C8.10364 3.98805 7.07882 4.57205 6.16948 5.30653L3.65985 4.42839C3.47199 4.36304 3.26835 4.35546 3.076 4.40666C2.88365 4.45787 2.71169 4.56544 2.58299 4.71507L2.52776 4.77844C1.46713 6.0084 0.639931 7.41588 0.0856313 8.93373L0.0580192 9.01219C-0.0800409 9.3894 0.0334753 9.81187 0.343344 10.0744L2.37436 11.7794C2.27925 12.3467 2.23323 12.9261 2.23323 13.4994C2.23323 14.0788 2.27925 14.6582 2.37436 15.2195L0.349479 16.9245C0.197907 17.0521 0.0894246 17.2221 0.0384575 17.4118C-0.0125095 17.6015 -0.00354649 17.8021 0.0641552 17.9867L0.0917672 18.0651C0.647076 19.583 1.46623 20.9862 2.5339 22.2204L2.58912 22.2838C2.71814 22.433 2.8901 22.5403 3.08234 22.5914C3.27458 22.6426 3.47807 22.6353 3.66599 22.5705L6.17562 21.6923C7.08988 22.4317 8.10846 23.0171 9.20987 23.4214L9.69462 25.9955C9.73096 26.1885 9.82614 26.3661 9.96752 26.5046C10.1089 26.6431 10.2898 26.736 10.4862 26.771L10.569 26.7861C12.1801 27.0713 13.8299 27.0713 15.441 26.7861L15.5238 26.771C15.7202 26.736 15.9011 26.6431 16.0425 26.5046C16.1838 26.3661 16.279 26.1885 16.3154 25.9955L16.797 23.4335C17.9077 23.0231 18.9324 22.4407 19.8528 21.6984L22.344 22.5705C22.5319 22.6358 22.7355 22.6434 22.9278 22.5922C23.1202 22.541 23.2922 22.4334 23.4209 22.2838L23.4761 22.2204C24.5437 20.9802 25.3629 19.583 25.9182 18.0651L25.9458 17.9867C26.0777 17.6125 25.9642 17.193 25.6544 16.9305ZM13.005 18.5057C10.026 18.5057 7.61144 16.1308 7.61144 13.2007C7.61144 10.2705 10.026 7.89566 13.005 7.89566C15.984 7.89566 18.3985 10.2705 18.3985 13.2007C18.3985 16.1308 15.984 18.5057 13.005 18.5057Z" fill="#D9D9D9"/>
</svg>
