<svg width="35" height="35" viewBox="0 0 35 35" fill="none" xmlns="http://www.w3.org/2000/svg">
<path d="M31.6094 21.3865L29.3706 19.4724C29.4766 18.823 29.5313 18.1599 29.5313 17.4968C29.5313 16.8337 29.4766 16.1707 29.3706 15.5212L31.6094 13.6072C31.7782 13.4626 31.8991 13.2701 31.9559 13.0552C32.0127 12.8403 32.0027 12.6132 31.9273 12.4041L31.8965 12.3152C31.2802 10.5926 30.3573 8.99577 29.1724 7.60181L29.1108 7.53003C28.9671 7.36102 28.7755 7.23952 28.5614 7.18156C28.3472 7.12359 28.1205 7.13188 27.9111 7.20532L25.1323 8.19311C24.1069 7.35229 22.9619 6.68921 21.7246 6.22437L21.188 3.31909C21.1475 3.10049 21.0415 2.89937 20.884 2.74247C20.7264 2.58557 20.5249 2.48031 20.3062 2.44067L20.2139 2.42358C18.4331 2.10229 16.5601 2.10229 14.7793 2.42358L14.687 2.44067C14.4683 2.48031 14.2667 2.58557 14.1092 2.74247C13.9517 2.89937 13.8457 3.10049 13.8052 3.31909L13.2651 6.23804C12.0377 6.70298 10.8947 7.36571 9.88136 8.19995L7.08204 7.20532C6.87274 7.1313 6.64587 7.12271 6.43158 7.18071C6.21729 7.23871 6.02572 7.36055 5.88233 7.53003L5.82081 7.60181C4.63732 8.99676 3.71457 10.5933 3.09669 12.3152L3.06592 12.4041C2.91212 12.8313 3.03858 13.3098 3.3838 13.6072L5.64991 15.5417C5.54395 16.1843 5.49268 16.8406 5.49268 17.4934C5.49268 18.1497 5.54395 18.8059 5.64991 19.4451L3.3838 21.3796C3.21493 21.5242 3.09408 21.7167 3.0373 21.9316C2.98052 22.1466 2.9905 22.3737 3.06592 22.5828L3.09669 22.6716C3.71534 24.3943 4.63135 25.9836 5.82081 27.385L5.88233 27.4568C6.02607 27.6258 6.21765 27.7473 6.43181 27.8053C6.64598 27.8632 6.87268 27.8549 7.08204 27.7815L9.88136 26.7869C10.8999 27.6243 12.0381 28.2874 13.2651 28.7488L13.8052 31.6677C13.8457 31.8863 13.9517 32.0874 14.1092 32.2443C14.2667 32.4012 14.4683 32.5065 14.687 32.5461L14.7793 32.5632C16.5764 32.8862 18.4168 32.8862 20.2139 32.5632L20.3062 32.5461C20.5249 32.5065 20.7264 32.4012 20.884 32.2443C21.0415 32.0874 21.1475 31.8863 21.188 31.6677L21.7246 28.7625C22.9614 28.2988 24.1129 27.6336 25.1323 26.7937L27.9111 27.7815C28.1204 27.8555 28.3473 27.8641 28.5616 27.8061C28.7759 27.7481 28.9675 27.6263 29.1108 27.4568L29.1724 27.385C30.3618 25.9802 31.2778 24.3943 31.8965 22.6716L31.9273 22.5828C32.0811 22.1624 31.9546 21.6838 31.6094 21.3865ZM26.9439 15.9246C27.0293 16.4407 27.0737 16.9705 27.0737 17.5002C27.0737 18.03 27.0293 18.5598 26.9439 19.0759L26.7183 20.4465L29.2715 22.6306C28.8844 23.5223 28.3959 24.3664 27.8154 25.1462L24.6436 24.0217L23.5703 24.9036C22.7534 25.5735 21.8442 26.0999 20.8599 26.469L19.5576 26.9578L18.9458 30.2732C17.9805 30.3826 17.0059 30.3826 16.0405 30.2732L15.4287 26.9509L14.1367 26.4553C13.1626 26.0862 12.2568 25.5598 11.4468 24.8933L10.3735 24.0081L7.18116 25.1428C6.60011 24.3601 6.11475 23.5159 5.7251 22.6272L8.30567 20.4226L8.0835 19.0554C8.00147 18.5461 7.95704 18.0198 7.95704 17.5002C7.95704 16.9773 7.99805 16.4543 8.0835 15.9451L8.30567 14.5779L5.7251 12.3733C6.11134 11.4812 6.60011 10.6404 7.18116 9.85767L10.3735 10.9924L11.4468 10.1072C12.2568 9.44067 13.1626 8.91431 14.1367 8.54517L15.4321 8.0564L16.044 4.73413C17.0044 4.62476 17.9854 4.62476 18.9492 4.73413L19.561 8.04956L20.8633 8.53833C21.8442 8.90747 22.7568 9.43384 23.5737 10.1038L24.647 10.9856L27.8189 9.86108C28.3999 10.6438 28.8853 11.488 29.2749 12.3767L26.7217 14.5608L26.9439 15.9246ZM17.5 11.1428C14.1777 11.1428 11.4844 13.8362 11.4844 17.1584C11.4844 20.4807 14.1777 23.1741 17.5 23.1741C20.8223 23.1741 23.5156 20.4807 23.5156 17.1584C23.5156 13.8362 20.8223 11.1428 17.5 11.1428ZM20.207 19.8655C19.852 20.2216 19.43 20.5039 18.9655 20.6963C18.5009 20.8887 18.0028 20.9874 17.5 20.9866C16.478 20.9866 15.5176 20.5867 14.793 19.8655C14.4369 19.5104 14.1545 19.0885 13.9621 18.6239C13.7697 18.1593 13.6711 17.6613 13.6719 17.1584C13.6719 16.1365 14.0718 15.176 14.793 14.4514C15.5176 13.7268 16.478 13.3303 17.5 13.3303C18.522 13.3303 19.4824 13.7268 20.207 14.4514C20.5631 14.8065 20.8455 15.2284 21.0379 15.693C21.2303 16.1576 21.3289 16.6556 21.3281 17.1584C21.3281 18.1804 20.9282 19.1409 20.207 19.8655Z" fill="white"/>
</svg>
