<svg width="28" height="28" viewBox="0 0 28 28" fill="none" xmlns="http://www.w3.org/2000/svg">
<path d="M27.207 24.418C27.3905 24.6009 27.5362 24.8182 27.6355 25.0575C27.7349 25.2968 27.786 25.5534 27.786 25.8125C27.786 26.0716 27.7349 26.3282 27.6355 26.5675C27.5362 26.8068 27.3905 27.0241 27.207 27.207C26.8355 27.5737 26.3345 27.7793 25.8125 27.7793C25.2904 27.7793 24.7894 27.5737 24.4179 27.207L14 16.7891L3.58198 27.207C3.21047 27.5737 2.70946 27.7793 2.18745 27.7793C1.66544 27.7793 1.16444 27.5737 0.79292 27.207C0.60938 27.0241 0.463751 26.8068 0.364384 26.5675C0.265018 26.3282 0.213867 26.0716 0.213867 25.8125C0.213867 25.5534 0.265018 25.2968 0.364384 25.0575C0.463751 24.8182 0.60938 24.6009 0.79292 24.418L11.2109 14L0.79292 3.58203C0.423067 3.21218 0.215286 2.71055 0.215286 2.1875C0.215286 1.92851 0.266298 1.67206 0.365408 1.43278C0.464519 1.19351 0.609788 0.976099 0.79292 0.792966C0.976053 0.609834 1.19346 0.464565 1.43274 0.365454C1.67201 0.266344 1.92846 0.215332 2.18745 0.215332C2.7105 0.215332 3.21213 0.423113 3.58198 0.792966L14 11.2109L24.4179 0.792966C24.7878 0.423113 25.2894 0.215332 25.8125 0.215332C26.3355 0.215332 26.8371 0.423113 27.207 0.792966C27.5768 1.16282 27.7846 1.66445 27.7846 2.1875C27.7846 2.71055 27.5768 3.21218 27.207 3.58203L16.789 14L27.207 24.418Z" fill="white"/>
</svg>
