<svg width="26" height="26" viewBox="0 0 26 26" fill="none" xmlns="http://www.w3.org/2000/svg">
<path d="M16.0044 18.1856L19.7456 14.4444H5.77778V11.5556H19.7456L16.0044 7.81444L18.0556 5.77778L25.2778 13L18.0556 20.2222L16.0044 18.1856ZM23.1111 0C23.8773 0 24.6121 0.304364 25.1539 0.846136C25.6956 1.38791 26 2.12271 26 2.88889V9.63444L23.1111 6.74556V2.88889H2.88889V23.1111H23.1111V19.2544L26 16.3656V23.1111C26 23.8773 25.6956 24.6121 25.1539 25.1539C24.6121 25.6956 23.8773 26 23.1111 26H2.88889C2.12271 26 1.38791 25.6956 0.846136 25.1539C0.304364 24.6121 0 23.8773 0 23.1111V2.88889C0 1.28556 1.28556 0 2.88889 0H23.1111Z" fill="white"/>
</svg>
