<svg width="27" height="27" viewBox="0 0 27 27" fill="none" xmlns="http://www.w3.org/2000/svg">
<path d="M6.75 24.75C6.13125 24.75 5.60175 24.5299 5.1615 24.0896C4.7205 23.6486 4.5 23.1187 4.5 22.5V11.25C4.5 10.6313 4.7205 10.1014 5.1615 9.66037C5.60175 9.22013 6.13125 9 6.75 9H7.875V6.75C7.875 5.19375 8.42363 3.867 9.52088 2.76975C10.6174 1.67325 11.9437 1.125 13.5 1.125C15.0562 1.125 16.383 1.67325 17.4803 2.76975C18.5767 3.867 19.125 5.19375 19.125 6.75V9H20.25C20.8687 9 21.3986 9.22013 21.8396 9.66037C22.2799 10.1014 22.5 10.6313 22.5 11.25V22.5C22.5 23.1187 22.2799 23.6486 21.8396 24.0896C21.3986 24.5299 20.8687 24.75 20.25 24.75H6.75ZM13.5 19.125C14.1187 19.125 14.6486 18.9049 15.0896 18.4646C15.5299 18.0236 15.75 17.4937 15.75 16.875C15.75 16.2563 15.5299 15.7264 15.0896 15.2854C14.6486 14.8451 14.1187 14.625 13.5 14.625C12.8813 14.625 12.3518 14.8451 11.9115 15.2854C11.4705 15.7264 11.25 16.2563 11.25 16.875C11.25 17.4937 11.4705 18.0236 11.9115 18.4646C12.3518 18.9049 12.8813 19.125 13.5 19.125ZM10.125 9H16.875V6.75C16.875 5.8125 16.5469 5.01562 15.8906 4.35938C15.2344 3.70312 14.4375 3.375 13.5 3.375C12.5625 3.375 11.7656 3.70312 11.1094 4.35938C10.4531 5.01562 10.125 5.8125 10.125 6.75V9Z" fill="black"/>
</svg>
