<svg width="35" height="35" viewBox="0 0 35 35" fill="none" xmlns="http://www.w3.org/2000/svg">
<path d="M8.74992 32.083C7.94784 32.083 7.26145 31.7977 6.69075 31.227C6.11909 30.6553 5.83325 29.9684 5.83325 29.1663V14.583C5.83325 13.7809 6.11909 13.094 6.69075 12.5224C7.26145 11.9517 7.94784 11.6663 8.74992 11.6663H10.2083V8.74967C10.2083 6.73231 10.9194 5.01245 12.3418 3.59009C13.7632 2.1687 15.4826 1.45801 17.4999 1.45801C19.5173 1.45801 21.2371 2.1687 22.6595 3.59009C24.0809 5.01245 24.7916 6.73231 24.7916 8.74967V11.6663H26.2499C27.052 11.6663 27.7389 11.9517 28.3105 12.5224C28.8812 13.094 29.1666 13.7809 29.1666 14.583V29.1663C29.1666 29.9684 28.8812 30.6553 28.3105 31.227C27.7389 31.7977 27.052 32.083 26.2499 32.083H8.74992ZM8.74992 29.1663H26.2499V14.583H8.74992V29.1663ZM17.4999 24.7913C18.302 24.7913 18.9889 24.506 19.5605 23.9353C20.1312 23.3636 20.4166 22.6768 20.4166 21.8747C20.4166 21.0726 20.1312 20.3857 19.5605 19.814C18.9889 19.2434 18.302 18.958 17.4999 18.958C16.6978 18.958 16.0114 19.2434 15.4408 19.814C14.8691 20.3857 14.5833 21.0726 14.5833 21.8747C14.5833 22.6768 14.8691 23.3636 15.4408 23.9353C16.0114 24.506 16.6978 24.7913 17.4999 24.7913ZM13.1249 11.6663H21.8749V8.74967C21.8749 7.5344 21.4496 6.50141 20.5989 5.65072C19.7482 4.80002 18.7152 4.37467 17.4999 4.37467C16.2846 4.37467 15.2517 4.80002 14.401 5.65072C13.5503 6.50141 13.1249 7.5344 13.1249 8.74967V11.6663ZM8.74992 29.1663V14.583V29.1663Z" fill="white"/>
</svg>
