<svg width="42" height="42" viewBox="0 0 42 42" fill="none" xmlns="http://www.w3.org/2000/svg">
<path d="M32.6847 34.3123L22.6834 24.3093C20.5376 25.8349 17.8969 26.4987 15.2847 26.169C12.6725 25.8393 10.2795 24.5403 8.57995 22.5295C6.8804 20.5186 5.99834 17.9426 6.10858 15.312C6.21883 12.6814 7.31333 10.1882 9.17518 8.32659C11.0365 6.46415 13.5297 5.36904 16.1605 5.25832C18.7912 5.1476 21.3676 6.02936 23.3789 7.72881C25.3901 9.42827 26.6894 11.8214 27.0193 14.4337C27.3491 17.0461 26.6854 19.6871 25.1597 21.8331L35.1609 31.8361L32.6864 34.3106L32.6847 34.3123ZM16.5987 8.75009C14.9888 8.74971 13.428 9.30427 12.1792 10.3203C10.9304 11.3363 10.07 12.7518 9.74301 14.3281C9.41597 15.9044 9.64227 17.5453 10.3838 18.9743C11.1253 20.4032 12.3367 21.5329 13.8139 22.173C15.291 22.8131 16.9437 22.9245 18.4934 22.4883C20.0431 22.0522 21.3951 21.0952 22.3216 19.7787C23.2481 18.4621 23.6925 16.8664 23.5799 15.2605C23.4673 13.6545 22.8046 12.1365 21.7034 10.9621L22.7622 12.0121L21.5687 10.8221L21.5477 10.8011C20.8994 10.1489 20.1282 9.63172 19.2787 9.27966C18.4292 8.9276 17.5183 8.7476 16.5987 8.75009Z" fill="#4267B2"/>
</svg>
